# xmcd
#
# Track frame offsets: 
#        150
#        9791
#        26517
#        44814
#        61622
#        81996
#        100770
#        116689
#        134533
#        149920
#        167480
#        185381
#        203121
#        220411
#        237896
#        251676
#        270079
#
# Disc length: 3997 seconds
#
# Revision: 0
# Processed by: cddbd v1.5.2PL0 Copyright (c) Steve Scherf et al.
# Submitted via: ExactAudioCopy v1.1
#
DISCID=ed0f9b11
DTITLE=Kygo - Cloud Nine
DYEAR=2016
DGENRE=A Cappella
TTITLE0=Intro
TTITLE1=Stole the Show (feat. Parson James)
TTITLE2=Fiction (feat. Tom Odell)
TTITLE3=Raging (feat. Kodaline)
TTITLE4=Firestone (feat. Conrad Sewell)
TTITLE5=Happy Birthday (feat. John Legend)
TTITLE6=I’m in Love (feat. James Vincent McMorrow)
TTITLE7=Oasis (feat. Foxes)
TTITLE8=Not Alone (feat. RHODES)
TTITLE9=Serious (feat. Matt Corby)
TTITLE10=Stay (feat. Maty Noyes)
TTITLE11=Nothing Left (feat. Will Heard)
TTITLE12=Kygo and Labrinth - Fragile
TTITLE13=Carry Me (feat.Julia Michaels)
TTITLE14=For What It’s Worth (feat. Angus and Julia Stone)
TTITLE15=Here for You (feat. Ella Henderson)
TTITLE16=Kygo and Kyla La Grange - Cut Your Teeth (Kygo Remix)
EXTD=
EXTT0=
EXTT1=
EXTT2=
EXTT3=
EXTT4=
EXTT5=
EXTT6=
EXTT7=
EXTT8=
EXTT9=
EXTT10=
EXTT11=
EXTT12=
EXTT13=
EXTT14=
EXTT15=
EXTT16=
PLAYORDER=
